####
#
# OBJ File Generated by Meshlab
#
####
# Object ffmiddle_mean.obj
#
# Vertices: 25
# Faces: 46
#
####
vn -2.186822 -2.579662 -2.130764
v -0.021440 -0.007031 -0.005783
vn -2.567812 0.200182 2.431619
v -0.023428 -0.000377 0.007555
vn -2.565827 0.518795 -2.226843
v -0.024189 0.001579 -0.007343
vn 1.698889 2.556874 -1.477866
v -0.002657 0.009011 -0.005777
vn 2.120374 0.177644 -2.752447
v -0.002232 0.002856 -0.009270
vn -2.910716 3.609033 0.705425
v -0.022457 0.006100 0.000497
vn -0.490539 5.793521 0.996822
v -0.006983 0.009037 0.001251
vn -0.659374 -1.095080 -6.093813
v -0.018699 -0.001512 -0.007650
vn 1.743107 -4.109047 -2.729762
v -0.007202 -0.007185 -0.005059
vn 2.324486 -2.299371 1.028261
v -0.001087 -0.006735 0.005602
vn -3.101539 3.555295 -1.696160
v -0.023093 0.004569 -0.004720
vn -0.916222 4.106560 4.220054
v -0.006522 0.006274 0.006814
vn 2.765461 -0.890150 2.808468
v -0.001171 -0.002440 0.008613
vn -0.078687 -2.223780 5.508512
v -0.005607 -0.002845 0.008718
vn 0.859271 -2.368461 -5.302770
v -0.007283 -0.002851 -0.008133
vn -2.484803 -2.671499 3.003292
v -0.021550 -0.004342 0.006748
vn -0.411306 1.044275 5.881114
v -0.006368 0.001735 0.009116
vn 2.460659 0.903316 3.230113
v -0.001547 0.002994 0.008994
vn 2.061033 2.274333 1.591044
v -0.001572 0.007491 0.006505
vn -1.464143 4.232368 4.121173
v -0.018054 0.003939 0.005927
vn -2.155252 -4.543765 -0.142203
v -0.020195 -0.008440 -0.002090
vn -2.167403 -4.480890 1.849345
v -0.020005 -0.007403 0.003257
vn -0.184503 -5.415567 2.882159
v -0.016969 -0.007305 0.003645
vn -0.253414 -4.504566 4.325211
v -0.005213 -0.006391 0.005725
vn 1.209877 -5.686639 -0.102867
v -0.006077 -0.008167 0.000733
# 25 vertices, 0 vertices normals

f 1//1 2//2 3//3
f 4//4 5//5 3//3
f 3//3 2//2 6//6
f 7//7 4//4 6//6
f 3//3 5//5 8//8
f 8//8 1//1 3//3
f 9//9 5//5 10//10
f 11//11 4//4 3//3
f 3//3 6//6 11//11
f 11//11 6//6 4//4
f 7//7 6//6 12//12
f 13//13 14//14 10//10
f 5//5 9//9 15//15
f 15//15 9//9 1//1
f 15//15 8//8 5//5
f 1//1 8//8 15//15
f 2//2 1//1 16//16
f 16//16 14//14 2//2
f 2//2 14//14 17//17
f 17//17 12//12 2//2
f 18//18 12//12 17//17
f 17//17 13//13 18//18
f 14//14 13//13 17//17
f 7//7 12//12 19//19
f 19//19 12//12 18//18
f 19//19 4//4 7//7
f 5//5 4//4 19//19
f 18//18 13//13 19//19
f 10//10 5//5 19//19
f 19//19 13//13 10//10
f 20//20 6//6 2//2
f 2//2 12//12 20//20
f 20//20 12//12 6//6
f 21//21 16//16 1//1
f 22//22 16//16 21//21
f 1//1 9//9 21//21
f 23//23 16//16 22//22
f 10//10 14//14 24//24
f 14//14 16//16 24//24
f 24//24 23//23 10//10
f 16//16 23//23 24//24
f 25//25 9//9 10//10
f 10//10 23//23 25//25
f 25//25 21//21 9//9
f 25//25 23//23 22//22
f 22//22 21//21 25//25
# 46 faces, 0 coords texture

# End of File
