####
#
# OBJ File Generated by Meshlab
#
####
# Object ffprox_mean.obj
#
# Vertices: 23
# Faces: 42
#
####
vn 2.168479 -1.877139 1.282530
v -0.002643 -0.005839 0.007535
vn 2.410754 -3.184467 -0.442611
v -0.004480 -0.007527 0.001930
vn 1.991321 2.161670 -0.707911
v -0.003614 0.013881 -0.000461
vn 2.775944 1.434339 3.273937
v -0.004207 0.006072 0.009706
vn 0.398997 3.561970 -4.688397
v -0.014542 0.011151 -0.005031
vn 2.183573 0.405731 -4.581216
v -0.008724 0.002579 -0.007905
vn -0.938018 -5.765904 0.457541
v -0.029805 -0.005871 0.002630
vn -1.291106 1.485353 -5.366253
v -0.030561 0.006239 -0.006995
vn 2.672796 3.134103 2.485521
v -0.004453 0.011354 0.005655
vn -2.129125 2.024000 0.404124
v -0.036375 0.013966 0.003208
vn -1.401767 3.916466 -3.204087
v -0.030791 0.012716 -0.003321
vn 2.075455 -2.848031 -2.077201
v -0.006337 -0.006846 -0.003312
vn -2.772405 -0.593854 -2.755949
v -0.035861 0.000968 -0.006191
vn 2.389924 -0.538946 3.839839
v -0.004020 -0.000238 0.010570
vn -3.163703 -2.722948 1.124366
v -0.035124 -0.004401 0.003037
vn -1.540923 -3.608730 3.779582
v -0.029820 -0.003551 0.008144
vn -2.110122 -1.067785 4.775758
v -0.029991 0.001931 0.010850
vn -3.145564 -2.691513 -1.482492
v -0.035600 -0.003274 -0.002704
vn 1.345503 -2.020335 -4.536062
v -0.009338 -0.002827 -0.007347
vn -1.945391 1.011930 4.493291
v -0.030533 0.007221 0.010870
vn -0.929865 -4.912252 -3.141548
v -0.030461 -0.004272 -0.003186
vn -0.817491 4.027962 3.902088
v -0.030753 0.011635 0.008024
vn -0.629913 -2.213527 -5.529761
v -0.030288 -0.000141 -0.006494
# 23 vertices, 0 vertices normals

f 1//1 2//2 3//3
f 1//1 3//3 4//4
f 5//5 3//3 6//6
f 7//7 2//2 1//1
f 8//8 5//5 6//6
f 9//9 3//3 10//10
f 9//9 4//4 3//3
f 5//5 8//8 11//11
f 10//10 3//3 11//11
f 3//3 5//5 11//11
f 2//2 7//7 12//12
f 6//6 3//3 12//12
f 12//12 3//3 2//2
f 10//10 11//11 13//13
f 13//13 11//11 8//8
f 1//1 4//4 14//14
f 15//15 7//7 16//16
f 16//16 17//17 15//15
f 16//16 7//7 1//1
f 1//1 14//14 16//16
f 16//16 14//14 17//17
f 18//18 7//7 15//15
f 18//18 15//15 10//10
f 10//10 13//13 18//18
f 6//6 12//12 19//19
f 20//20 14//14 4//4
f 17//17 14//14 20//20
f 10//10 15//15 20//20
f 15//15 17//17 20//20
f 21//21 12//12 7//7
f 7//7 18//18 21//21
f 21//21 19//19 12//12
f 21//21 18//18 13//13
f 4//4 9//9 22//22
f 22//22 20//20 4//4
f 22//22 9//9 10//10
f 10//10 20//20 22//22
f 23//23 21//21 13//13
f 19//19 21//21 23//23
f 6//6 19//19 23//23
f 23//23 8//8 6//6
f 23//23 13//13 8//8
# 42 faces, 0 coords texture

# End of File
