####
#
# OBJ File Generated by Meshlab
#
####
# Object lfmiddle_mean.obj
#
# Vertices: 27
# Faces: 50
#
####
vn -3.938936 1.084989 1.005099
v -0.019829 0.002972 -0.006592
vn -0.057975 -0.167694 4.509060
v -0.005229 0.001345 0.003989
vn 0.133382 1.666482 3.945280
v -0.004056 0.005946 0.003255
vn 1.155422 2.290022 1.854299
v -0.001097 0.009194 0.000899
vn -4.170727 -0.556626 1.791627
v -0.019689 -0.000012 -0.005763
vn -3.304183 -2.263304 0.736028
v -0.018875 -0.003415 -0.006716
vn 2.532192 2.162860 0.333876
v 0.002087 0.008561 -0.003504
vn 2.091201 -3.441818 1.449561
v -0.001389 -0.005765 -0.002476
vn 3.015317 0.695284 -1.046011
v 0.003785 0.004533 -0.007639
vn -2.467195 -4.902179 0.242929
v -0.016296 -0.005291 -0.008940
vn -1.653976 -4.464097 -1.496505
v -0.014398 -0.005811 -0.012557
vn 0.752760 -2.013527 3.560590
v -0.004444 -0.002419 0.002996
vn -3.002857 4.244704 3.527391
v -0.016649 0.004029 -0.005151
vn -0.628057 -1.013082 -3.690533
v -0.012955 -0.001994 -0.017432
vn -0.808272 1.242067 -3.672836
v -0.013256 0.002298 -0.017268
vn 3.033530 -1.938514 -4.825665
v -0.008958 -0.001722 -0.015036
vn 3.229112 -2.776363 -0.416222
v 0.000829 -0.004519 -0.005932
vn -3.009777 2.304755 -0.451285
v -0.018954 0.005587 -0.009014
vn -1.431131 4.036230 -2.620882
v -0.014815 0.006112 -0.013187
vn 0.629349 5.343709 -2.272229
v -0.001857 0.008388 -0.005760
vn 0.714507 -4.488540 3.155579
v -0.003378 -0.004539 0.000255
vn 2.687821 -3.975324 -4.030684
v -0.010177 -0.004125 -0.013801
vn 3.444586 -2.033832 -4.364846
v -0.000638 -0.001214 -0.009959
vn -1.181331 6.114060 0.037753
v -0.005126 0.008438 -0.001816
vn 1.393161 4.739452 -3.882642
v -0.010539 0.006520 -0.011157
vn -1.639332 -5.390179 2.779726
v -0.006987 -0.004316 -0.001440
vn -1.212571 -2.639572 -2.858292
v -0.013615 -0.004373 -0.015835
# 27 vertices, 0 vertices normals

f 1//1 2//2 3//3
f 2//2 4//4 3//3
f 5//5 2//2 1//1
f 1//1 6//6 5//5
f 7//7 8//8 9//9
f 10//10 6//6 11//11
f 11//11 8//8 10//10
f 2//2 5//5 12//12
f 12//12 5//5 6//6
f 12//12 4//4 2//2
f 12//12 7//7 4//4
f 8//8 7//7 12//12
f 1//1 3//3 13//13
f 14//14 15//15 9//9
f 9//9 16//16 14//14
f 17//17 8//8 11//11
f 9//9 8//8 17//17
f 18//18 19//19 15//15
f 15//15 14//14 18//18
f 1//1 13//13 18//18
f 18//18 6//6 1//1
f 18//18 3//3 4//4
f 18//18 13//13 3//3
f 9//9 15//15 20//20
f 20//20 7//7 9//9
f 20//20 19//19 4//4
f 4//4 7//7 20//20
f 21//21 12//12 6//6
f 21//21 10//10 8//8
f 8//8 12//12 21//21
f 22//22 14//14 16//16
f 23//23 16//16 9//9
f 9//9 17//17 23//23
f 23//23 22//22 16//16
f 17//17 22//22 23//23
f 4//4 19//19 24//24
f 24//24 18//18 4//4
f 19//19 18//18 24//24
f 15//15 19//19 25//25
f 25//25 20//20 15//15
f 19//19 20//20 25//25
f 6//6 10//10 26//26
f 26//26 21//21 6//6
f 10//10 21//21 26//26
f 14//14 22//22 27//27
f 11//11 6//6 27//27
f 27//27 17//17 11//11
f 27//27 22//22 17//17
f 6//6 18//18 27//27
f 27//27 18//18 14//14
# 50 faces, 0 coords texture

# End of File
