####
#
# OBJ File Generated by Meshlab
#
####
# Object lfprox_mean.obj
#
# Vertices: 21
# Faces: 38
#
####
vn 1.959597 -1.218059 0.347525
v 0.006988 -0.004809 -0.003949
vn 2.383267 3.300839 0.331609
v 0.001440 0.009422 -0.004387
vn 0.874642 2.901858 2.940278
v -0.002433 0.008540 0.000681
vn -0.959322 -0.164968 3.905821
v -0.008105 -0.000531 0.004593
vn -2.581995 3.592271 -0.275396
v -0.015979 0.009270 -0.010625
vn -1.307557 -4.763857 -1.641341
v -0.014788 -0.006092 -0.013716
vn -3.199008 -3.420656 -0.261737
v -0.017461 -0.005358 -0.010907
vn -0.878557 -0.460685 -2.631260
v -0.014510 -0.000648 -0.021096
vn -4.256215 -2.029287 0.914212
v -0.018949 -0.002893 -0.008176
vn -4.533034 0.338452 1.233382
v -0.019564 0.001522 -0.007016
vn 0.199703 -2.478848 3.334826
v -0.005702 -0.004271 0.003351
vn 4.006929 1.641382 -2.694823
v 0.004139 0.003641 -0.008407
vn 1.369310 2.128702 -4.321920
v -0.010104 0.005123 -0.018568
vn -4.023013 2.381364 1.011633
v -0.018269 0.005992 -0.007875
vn 4.203922 0.189558 -1.396753
v 0.006513 -0.001500 -0.005946
vn 1.301819 -4.537706 -3.518328
v -0.011934 -0.004272 -0.016555
vn -0.112575 -5.917986 1.323795
v -0.004794 -0.005756 -0.001047
vn -0.783072 4.086419 -2.526512
v -0.012476 0.009038 -0.014990
vn -0.884987 2.695001 4.744858
v -0.005782 0.004950 0.002526
vn 3.322937 -1.741399 -4.851928
v -0.010684 -0.000783 -0.018449
vn 0.529716 -6.218284 -0.018313
v -0.001959 -0.005768 -0.004085
# 21 vertices, 0 vertices normals

f 1//1 2//2 3//3
f 3//3 4//4 1//1
f 2//2 5//5 3//3
f 6//6 7//7 8//8
f 9//9 4//4 10//10
f 10//10 8//8 9//9
f 8//8 7//7 9//9
f 1//1 4//4 11//11
f 4//4 9//9 11//11
f 11//11 9//9 7//7
f 2//2 12//12 13//13
f 10//10 4//4 14//14
f 14//14 8//8 10//10
f 14//14 5//5 8//8
f 14//14 3//3 5//5
f 15//15 2//2 1//1
f 15//15 12//12 2//2
f 16//16 8//8 1//1
f 1//1 6//6 16//16
f 16//16 6//6 8//8
f 1//1 11//11 17//17
f 7//7 6//6 17//17
f 17//17 11//11 7//7
f 8//8 5//5 18//18
f 18//18 13//13 8//8
f 18//18 5//5 2//2
f 2//2 13//13 18//18
f 4//4 3//3 19//19
f 19//19 14//14 4//4
f 3//3 14//14 19//19
f 12//12 15//15 20//20
f 8//8 13//13 20//20
f 20//20 13//13 12//12
f 1//1 8//8 20//20
f 20//20 15//15 1//1
f 21//21 6//6 1//1
f 1//1 17//17 21//21
f 21//21 17//17 6//6
# 38 faces, 0 coords texture

# End of File
