####
#
# OBJ File Generated by Meshlab
#
####
# Object mfmiddle_mean.obj
#
# Vertices: 23
# Faces: 42
#
####
vn -0.352988 -5.456230 2.420625
v -0.020972 -0.007571 0.000212
vn 2.386725 -2.648145 1.944729
v -0.005073 -0.006196 0.003748
vn -2.905215 -1.640401 1.831062
v -0.025770 -0.005121 0.002396
vn 2.202069 -1.754865 3.558456
v -0.005622 -0.003305 0.006266
vn 1.931606 -0.012594 3.512533
v -0.005668 0.001253 0.007684
vn 2.330873 2.052453 -1.694018
v -0.003467 0.007234 -0.006683
vn -2.485876 2.160610 -3.179039
v -0.022713 0.002169 -0.010220
vn -2.659248 3.651906 -2.146179
v -0.022029 0.005036 -0.007528
vn 1.811702 2.505751 0.355893
v -0.003840 0.009975 0.000128
vn -2.622086 4.447250 0.067278
v -0.021864 0.006633 -0.002130
vn -2.876656 2.173710 2.112918
v -0.024259 0.003522 0.003044
vn -2.925825 -3.491503 0.640742
v -0.024682 -0.007477 -0.000768
vn -2.666910 -3.619230 -1.026639
v -0.023633 -0.008080 -0.005777
vn 0.070658 -5.812383 -1.022667
v -0.020509 -0.008356 -0.005340
vn -2.209281 -0.127531 -2.938495
v -0.023796 -0.002066 -0.011370
vn 2.704641 0.509699 -3.199866
v -0.004082 0.002171 -0.009518
vn 0.530581 -3.942629 -4.392000
v -0.019593 -0.006169 -0.009157
vn 2.786881 -2.685863 -1.791130
v -0.004429 -0.006331 -0.006332
vn -2.224938 -2.674807 -2.701485
v -0.023303 -0.006402 -0.009242
vn -3.060910 0.027981 2.560591
v -0.025546 -0.001676 0.003804
vn 1.660375 1.832811 2.426177
v -0.005086 0.006958 0.005975
vn 2.898066 -3.093944 0.188628
v -0.004353 -0.007387 -0.001829
vn 3.091600 -1.294917 -3.168813
v -0.004371 -0.002595 -0.008861
# 23 vertices, 0 vertices normals

f 1//1 2//2 3//3
f 3//3 2//2 4//4
f 4//4 2//2 5//5
f 6//6 7//7 8//8
f 8//8 9//9 6//6
f 10//10 9//9 8//8
f 10//10 8//8 11//11
f 11//11 8//8 7//7
f 12//12 13//13 14//14
f 14//14 1//1 12//12
f 3//3 13//13 12//12
f 12//12 1//1 3//3
f 15//15 13//13 3//3
f 15//15 11//11 7//7
f 16//16 7//7 6//6
f 16//16 15//15 7//7
f 14//14 17//17 18//18
f 14//14 13//13 19//19
f 19//19 17//17 14//14
f 13//13 15//15 19//19
f 19//19 15//15 17//17
f 5//5 11//11 20//20
f 3//3 4//4 20//20
f 20//20 4//4 5//5
f 20//20 15//15 3//3
f 11//11 15//15 20//20
f 21//21 9//9 10//10
f 10//10 11//11 21//21
f 21//21 11//11 5//5
f 5//5 2//2 21//21
f 2//2 9//9 21//21
f 14//14 18//18 22//22
f 22//22 1//1 14//14
f 2//2 1//1 22//22
f 22//22 18//18 6//6
f 6//6 9//9 22//22
f 22//22 9//9 2//2
f 23//23 18//18 17//17
f 17//17 15//15 23//23
f 15//15 16//16 23//23
f 23//23 16//16 6//6
f 6//6 18//18 23//23
# 42 faces, 0 coords texture

# End of File
