####
#
# OBJ File Generated by Meshlab
#
####
# Object mfprox_mean.obj
#
# Vertices: 27
# Faces: 50
#
####
vn 1.870930 -1.295444 3.259128
v 0.002547 0.001045 0.010230
vn 1.501471 0.684438 1.199517
v 0.006146 0.006336 0.009794
vn -3.043059 0.352115 2.552081
v -0.033444 0.003478 0.003234
vn 0.982732 -2.387160 3.125844
v -0.000943 -0.003024 0.009770
vn 2.382921 -2.107496 -2.395534
v 0.001075 -0.004393 -0.009797
vn -0.901462 -5.796091 0.760634
v -0.025865 -0.008088 -0.003247
vn -1.214075 -4.554453 3.326450
v -0.026496 -0.006567 0.000745
vn 2.388854 -4.811872 0.974271
v -0.001673 -0.006766 -0.000386
vn -2.774045 2.324193 1.553841
v -0.032856 0.009493 0.000274
vn -2.103475 0.162327 -3.184283
v -0.031065 0.003568 -0.015242
vn -0.603356 5.040611 3.203201
v -0.027612 0.009908 0.000839
vn -2.348043 4.233390 -0.341220
v -0.031121 0.011529 -0.005574
vn -2.814408 -2.890144 -1.815601
v -0.031058 -0.005887 -0.010188
vn -0.376688 -5.427266 -2.049747
v -0.025267 -0.007742 -0.008213
vn 0.229192 -3.572318 -4.884322
v -0.025006 -0.004357 -0.012213
vn -1.512898 -2.401991 5.525448
v -0.027315 -0.001954 0.003364
vn -3.641602 -2.990443 1.219847
v -0.032291 -0.005070 -0.000969
vn -0.110289 5.614639 2.790562
v -0.005418 0.009189 0.003873
vn -2.028819 2.205942 -2.267449
v -0.031081 0.009125 -0.012999
vn 2.996724 0.838060 -2.725695
v 0.002582 0.002340 -0.009877
vn 1.501697 -5.294218 -1.072029
v -0.002566 -0.007276 -0.005802
vn -2.542844 -1.580564 -3.250595
v -0.030836 -0.001971 -0.013674
vn -3.255420 -5.070127 -0.067692
v -0.031021 -0.006220 -0.005611
vn -3.605196 -1.464430 2.266175
v -0.033167 -0.001500 0.001839
vn 1.370380 4.899498 -0.411239
v -0.005055 0.012194 -0.002923
vn 1.602347 3.795570 -3.888041
v -0.005377 0.008983 -0.008768
vn 0.879609 2.946366 -5.372911
v -0.025356 0.008432 -0.012585
# 27 vertices, 0 vertices normals

f 1//1 2//2 3//3
f 3//3 4//4 1//1
f 1//1 5//5 2//2
f 6//6 4//4 7//7
f 8//8 4//4 6//6
f 5//5 1//1 8//8
f 8//8 1//1 4//4
f 9//9 10//10 3//3
f 9//9 11//11 12//12
f 3//3 2//2 9//9
f 2//2 11//11 9//9
f 6//6 13//13 14//14
f 5//5 14//14 15//15
f 15//15 14//14 13//13
f 16//16 4//4 3//3
f 16//16 7//7 4//4
f 6//6 7//7 17//17
f 18//18 11//11 2//2
f 10//10 9//9 19//19
f 19//19 9//9 12//12
f 20//20 5//5 10//10
f 2//2 5//5 20//20
f 5//5 8//8 21//21
f 21//21 14//14 5//5
f 21//21 8//8 6//6
f 6//6 14//14 21//21
f 22//22 13//13 10//10
f 22//22 15//15 13//13
f 10//10 5//5 22//22
f 5//5 15//15 22//22
f 23//23 13//13 6//6
f 6//6 17//17 23//23
f 23//23 17//17 13//13
f 7//7 16//16 24//24
f 24//24 17//17 7//7
f 24//24 16//16 3//3
f 13//13 17//17 24//24
f 3//3 10//10 24//24
f 10//10 13//13 24//24
f 25//25 19//19 12//12
f 26//26 19//19 25//25
f 12//12 11//11 25//25
f 11//11 18//18 25//25
f 25//25 18//18 2//2
f 2//2 20//20 25//25
f 25//25 20//20 26//26
f 10//10 19//19 27//27
f 27//27 19//19 26//26
f 27//27 20//20 10//10
f 26//26 20//20 27//27
# 50 faces, 0 coords texture

# End of File
