####
#
# OBJ File Generated by Meshlab
#
####
# Object palm_mean.obj
#
# Vertices: 64
# Faces: 124
#
####
vn 3.934938 -2.101903 -0.760537
v 0.018996 -0.010902 -0.014029
vn 2.342017 2.202573 -2.033374
v 0.014290 0.018759 -0.025084
vn 4.446403 -2.001605 1.197413
v 0.016251 -0.011460 0.012224
vn 2.341406 3.842929 0.320065
v 0.010206 0.025781 -0.005797
vn 3.379722 1.490936 3.245747
v 0.010036 0.006159 0.029766
vn 2.311470 3.455235 -0.695540
v 0.011768 0.024738 -0.014330
vn -2.411188 3.773372 -2.985632
v -0.077482 0.008475 -0.025215
vn -3.180291 3.607116 -0.416950
v -0.089595 0.011817 -0.004533
vn 2.162910 3.845543 1.945280
v 0.006668 0.021373 0.017753
vn -0.861321 0.772659 -5.077768
v -0.059139 -0.007655 -0.046349
vn 1.541355 -2.203925 -5.024831
v -0.027655 -0.012981 -0.038642
vn 0.058655 -2.703660 -4.866008
v -0.057896 -0.015503 -0.044795
vn 3.480799 0.315855 -3.025809
v 0.016047 0.007942 -0.026987
vn -0.498499 -6.180946 -0.529510
v -0.055898 -0.020508 -0.034264
vn 0.900653 -5.874004 0.679994
v -0.008801 -0.022851 0.012428
vn -0.770801 -4.727147 2.558431
v -0.061067 -0.019092 0.031152
vn -1.502787 3.295053 -4.264943
v -0.061311 0.000449 -0.041627
vn -3.750958 -1.218434 -3.197374
v -0.077509 -0.012506 -0.034317
vn 4.193480 -1.380860 3.575385
v 0.010503 -0.003960 0.028787
vn 1.465917 -2.031181 4.053298
v -0.004537 -0.010807 0.037933
vn 4.093682 -3.460721 0.413890
v 0.016846 -0.013038 0.003828
vn 1.998574 4.787274 1.161355
v 0.007798 0.024261 0.006593
vn -2.898017 -4.004172 -2.444205
v -0.069979 -0.016836 -0.038800
vn -4.195906 -2.588215 -1.088319
v -0.090698 -0.010597 -0.012598
vn -5.182364 -0.940966 -2.731965
v -0.089583 -0.009553 -0.015736
vn -4.683494 2.050242 -2.014514
v -0.090293 0.007080 -0.011342
vn -5.139225 -1.597450 0.244213
v -0.093462 -0.009025 0.005716
vn 1.470521 -5.248934 -2.289410
v -0.008762 -0.019860 -0.022864
vn 1.363177 -6.112041 -0.461553
v -0.003690 -0.020327 -0.006094
vn 0.783300 -6.211484 -0.496326
v -0.013426 -0.021499 -0.012103
vn -1.868794 -2.915351 -3.276143
v -0.065768 -0.017461 -0.042129
vn 2.056463 -5.000703 2.190235
v -0.000203 -0.018063 0.023815
vn 4.748981 -1.425997 1.955455
v 0.014608 -0.008250 0.019565
vn -0.873557 6.180635 -0.161320
v -0.078863 0.013356 -0.004402
vn 4.209758 -3.656262 0.089583
v 0.017920 -0.012149 -0.005570
vn 0.669674 -5.625005 -1.886922
v -0.024512 -0.021170 -0.027677
vn 0.240167 -5.438006 -2.465205
v -0.054040 -0.019815 -0.038849
vn 1.164492 -4.923979 -3.614728
v -0.035154 -0.019077 -0.034654
vn 1.043512 -5.414051 -2.138804
v -0.018402 -0.020990 -0.025584
vn 1.180156 -3.591712 -4.792742
v -0.051344 -0.015627 -0.043178
vn 2.037040 -5.020247 -2.097667
v 0.001715 -0.018055 -0.019554
vn 4.314225 -0.946423 -3.127121
v 0.017300 -0.000675 -0.023202
vn 4.351048 -1.313372 -2.137377
v 0.018428 -0.006904 -0.019063
vn 1.938344 -2.764050 -4.886813
v -0.016883 -0.012177 -0.035040
vn 2.498125 -3.153908 -4.646873
v 0.004299 -0.010701 -0.025503
vn -2.849654 3.379536 2.822717
v -0.084974 0.006490 0.026020
vn -1.831821 5.351259 1.653371
v -0.081984 0.010967 0.018585
vn -4.996112 2.213897 1.196265
v -0.091297 0.005446 0.012106
vn -0.304216 0.674146 4.200638
v -0.044607 -0.001485 0.044591
vn -1.218524 -3.001877 5.214232
v -0.061886 -0.012822 0.035614
vn -2.867868 -4.207857 3.143641
v -0.083070 -0.012887 0.026894
vn -2.652697 -4.846267 1.498882
v -0.084883 -0.014926 0.021180
vn -4.326125 -4.549190 -0.259642
v -0.090130 -0.012462 0.010172
vn -1.330803 -6.039057 -0.575654
v -0.063526 -0.019377 -0.034921
vn 2.885904 -3.517060 -4.184267
v 0.011360 -0.009839 -0.021765
vn 2.721674 3.255218 3.183268
v 0.007552 0.014688 0.025092
vn -0.564462 5.213852 3.451517
v -0.048960 0.005774 0.033562
vn 1.370233 1.965106 5.729634
v -0.004980 0.000650 0.035622
vn -3.574883 -3.639901 0.952122
v -0.088854 -0.013990 0.015712
vn -0.571068 -5.784712 -2.088321
v -0.059801 -0.018999 -0.039867
vn 0.673685 3.659394 4.939812
v -0.020339 0.005253 0.036330
vn -3.315435 -1.453866 3.589708
v -0.084816 -0.008013 0.030513
vn -3.423116 1.088264 3.730393
v -0.085171 -0.000258 0.030362
vn -1.685053 -1.883698 5.748952
v -0.051336 -0.003483 0.041970
# 64 vertices, 0 vertices normals

f 1//1 2//2 3//3
f 4//4 5//5 6//6
f 2//2 7//7 6//6
f 6//6 3//3 2//2
f 6//6 8//8 4//4
f 6//6 7//7 8//8
f 9//9 5//5 4//4
f 10//10 11//11 12//12
f 10//10 2//2 13//13
f 13//13 11//11 10//10
f 14//14 15//15 16//16
f 17//17 2//2 10//10
f 17//17 7//7 2//2
f 10//10 18//18 17//17
f 18//18 7//7 17//17
f 19//19 5//5 20//20
f 1//1 3//3 21//21
f 22//22 9//9 4//4
f 18//18 23//23 24//24
f 24//24 25//25 18//18
f 26//26 7//7 18//18
f 18//18 25//25 26//26
f 8//8 7//7 26//26
f 25//25 24//24 26//26
f 26//26 24//24 27//27
f 15//15 28//28 29//29
f 30//30 28//28 15//15
f 10//10 12//12 31//31
f 31//31 18//18 10//10
f 31//31 23//23 18//18
f 20//20 16//16 32//32
f 32//32 16//16 15//15
f 15//15 21//21 32//32
f 32//32 21//21 3//3
f 5//5 19//19 33//33
f 33//33 6//6 5//5
f 3//3 6//6 33//33
f 33//33 32//32 3//3
f 33//33 19//19 20//20
f 20//20 32//32 33//33
f 4//4 8//8 34//34
f 1//1 21//21 35//35
f 36//36 15//15 14//14
f 37//37 31//31 12//12
f 37//37 36//36 14//14
f 38//38 36//36 37//37
f 11//11 28//28 39//39
f 39//39 38//38 11//11
f 39//39 36//36 38//38
f 28//28 30//30 39//39
f 39//39 30//30 15//15
f 15//15 36//36 39//39
f 40//40 12//12 11//11
f 11//11 38//38 40//40
f 40//40 37//37 12//12
f 38//38 37//37 40//40
f 41//41 29//29 28//28
f 1//1 35//35 41//41
f 41//41 35//35 21//21
f 41//41 21//21 15//15
f 15//15 29//29 41//41
f 42//42 13//13 43//43
f 43//43 2//2 1//1
f 43//43 13//13 2//2
f 44//44 13//13 42//42
f 42//42 45//45 44//44
f 11//11 13//13 44//44
f 44//44 28//28 11//11
f 44//44 41//41 28//28
f 45//45 41//41 44//44
f 8//8 46//46 47//47
f 47//47 34//34 8//8
f 9//9 22//22 47//47
f 47//47 46//46 9//9
f 47//47 22//22 4//4
f 4//4 34//34 47//47
f 48//48 46//46 8//8
f 48//48 26//26 27//27
f 8//8 26//26 48//48
f 49//49 16//16 20//20
f 49//49 50//50 16//16
f 51//51 52//52 16//16
f 27//27 24//24 53//53
f 14//14 16//16 54//54
f 16//16 52//52 54//54
f 23//23 31//31 54//54
f 55//55 45//45 42//42
f 42//42 43//43 55//55
f 55//55 41//41 45//45
f 1//1 41//41 55//55
f 55//55 43//43 1//1
f 5//5 9//9 56//56
f 9//9 49//49 56//56
f 9//9 46//46 57//57
f 57//57 49//49 9//9
f 46//46 49//49 57//57
f 20//20 5//5 58//58
f 58//58 49//49 20//20
f 27//27 53//53 59//59
f 59//59 54//54 52//52
f 23//23 54//54 59//59
f 59//59 24//24 23//23
f 59//59 53//53 24//24
f 31//31 37//37 60//60
f 60//60 54//54 31//31
f 60//60 37//37 14//14
f 14//14 54//54 60//60
f 5//5 56//56 61//61
f 61//61 56//56 49//49
f 61//61 58//58 5//5
f 49//49 58//58 61//61
f 52//52 51//51 62//62
f 62//62 59//59 52//52
f 27//27 59//59 62//62
f 16//16 50//50 62//62
f 62//62 51//51 16//16
f 63//63 49//49 46//46
f 63//63 62//62 49//49
f 46//46 48//48 63//63
f 63//63 48//48 27//27
f 27//27 62//62 63//63
f 50//50 49//49 64//64
f 64//64 62//62 50//50
f 49//49 62//62 64//64
# 124 faces, 0 coords texture

# End of File
