####
#
# OBJ File Generated by Meshlab
#
####
# Object rfdist_mean.obj
#
# Vertices: 42
# Faces: 80
#
####
vn 2.856232 -0.570003 -1.743840
v -0.000413 -0.002813 -0.007210
vn 2.083175 3.699580 -3.099530
v -0.006521 0.004693 -0.007744
vn 1.567789 1.665388 1.542648
v -0.002646 0.005603 0.004113
vn 1.280514 5.369698 -0.655877
v -0.006952 0.006726 -0.002722
vn 2.308160 -3.112548 1.354119
v -0.002795 -0.006572 0.000424
vn 2.437176 0.983097 -5.016232
v -0.004514 0.000072 -0.009100
vn -2.373060 -1.484235 -4.484751
v -0.022494 -0.001245 -0.012081
vn -4.068315 -3.710000 -0.991755
v -0.024611 -0.003738 -0.007010
vn -4.806983 -1.397387 -1.682130
v -0.026078 -0.000976 -0.008061
vn -2.529846 0.670606 4.654503
v -0.022532 0.000559 0.000544
vn -2.476851 -2.729774 4.672992
v -0.021414 -0.002411 0.000131
vn -0.129878 -0.923253 5.542093
v -0.006823 -0.001199 0.005180
vn 0.413913 1.968016 -5.537130
v -0.018549 0.000722 -0.012350
vn 1.313740 2.188862 -5.684381
v -0.011986 0.001553 -0.010554
vn 0.304529 -1.356911 -5.412134
v -0.017886 -0.001997 -0.012577
vn 0.065747 -4.140044 -4.105313
v -0.017584 -0.004298 -0.011102
vn 1.432213 -3.657586 -4.736680
v -0.005070 -0.003230 -0.008335
vn -3.179726 2.409775 1.441493
v -0.026025 0.003688 -0.003427
vn -3.844792 2.223048 -1.775395
v -0.025911 0.003308 -0.008172
vn -0.867607 5.212955 -1.288586
v -0.021056 0.005776 -0.007315
vn -0.949695 5.948696 1.547146
v -0.011587 0.005910 -0.000296
vn 2.757603 -3.552013 -0.818225
v -0.001923 -0.006154 -0.003910
vn -0.054728 -5.732612 -2.397370
v -0.017091 -0.005605 -0.008640
vn -1.584511 -5.286606 -2.411180
v -0.020571 -0.005312 -0.008675
vn -1.101930 -5.526980 0.514770
v -0.018895 -0.006698 -0.004559
vn -1.132167 5.069530 2.869040
v -0.009905 0.005715 0.001206
vn -4.661794 -0.839511 2.348917
v -0.025948 0.000010 -0.002534
vn -1.698950 -2.572203 5.415991
v -0.015731 -0.002273 0.001990
vn -1.250192 -4.443319 3.903695
v -0.014710 -0.004823 0.000660
vn -1.917378 -4.682540 3.453541
v -0.019857 -0.004743 -0.001337
vn -0.945409 4.179755 -4.191083
v -0.022350 0.002650 -0.011178
vn 0.529054 -5.667224 -2.218856
v -0.012618 -0.006121 -0.007008
vn -2.386652 -4.089264 -3.673262
v -0.021645 -0.003699 -0.010445
vn -2.854763 -5.107174 -0.249815
v -0.022630 -0.005293 -0.006032
vn -1.338662 1.964744 5.323300
v -0.008909 0.002424 0.004536
vn -0.310704 -5.875403 0.939945
v -0.013850 -0.006771 -0.002984
vn 1.509932 -2.401488 3.430840
v -0.004454 -0.004543 0.003998
vn 0.508206 4.037504 -4.783929
v -0.018418 0.002575 -0.010846
vn -2.375698 5.081734 -1.949181
v -0.024314 0.004305 -0.007951
vn -1.999371 1.576690 -4.453923
v -0.022756 0.001609 -0.011960
vn -3.942558 -3.195015 2.494761
v -0.024408 -0.002936 -0.002597
vn -2.993386 -4.800958 2.270060
v -0.022772 -0.004425 -0.003180
# 42 vertices, 0 vertices normals

f 1//1 2//2 3//3
f 3//3 2//2 4//4
f 3//3 5//5 1//1
f 6//6 2//2 1//1
f 7//7 8//8 9//9
f 10//10 11//11 12//12
f 13//13 2//2 14//14
f 14//14 6//6 13//13
f 2//2 6//6 14//14
f 13//13 6//6 15//15
f 16//16 7//7 15//15
f 15//15 17//17 16//16
f 15//15 6//6 1//1
f 1//1 17//17 15//15
f 9//9 18//18 19//19
f 4//4 2//2 20//20
f 20//20 21//21 4//4
f 18//18 21//21 20//20
f 1//1 5//5 22//22
f 22//22 17//17 1//1
f 16//16 17//17 22//22
f 16//16 23//23 24//24
f 24//24 23//23 25//25
f 26//26 21//21 18//18
f 26//26 3//3 4//4
f 4//4 21//21 26//26
f 11//11 10//10 27//27
f 27//27 10//10 18//18
f 27//27 18//18 9//9
f 9//9 8//8 27//27
f 12//12 11//11 28//28
f 29//29 30//30 25//25
f 11//11 30//30 29//29
f 29//29 28//28 11//11
f 31//31 20//20 2//2
f 25//25 23//23 32//32
f 32//32 23//23 16//16
f 16//16 22//22 32//32
f 33//33 7//7 16//16
f 16//16 24//24 33//33
f 8//8 7//7 33//33
f 33//33 24//24 8//8
f 34//34 24//24 25//25
f 8//8 24//24 34//34
f 3//3 26//26 35//35
f 18//18 10//10 35//35
f 35//35 26//26 18//18
f 12//12 3//3 35//35
f 35//35 10//10 12//12
f 36//36 29//29 25//25
f 5//5 29//29 36//36
f 36//36 22//22 5//5
f 25//25 32//32 36//36
f 36//36 32//32 22//22
f 37//37 29//29 5//5
f 37//37 3//3 12//12
f 5//5 3//3 37//37
f 12//12 28//28 37//37
f 28//28 29//29 37//37
f 38//38 2//2 13//13
f 13//13 31//31 38//38
f 38//38 31//31 2//2
f 39//39 31//31 19//19
f 20//20 31//31 39//39
f 39//39 19//19 18//18
f 18//18 20//20 39//39
f 40//40 31//31 13//13
f 13//13 15//15 40//40
f 40//40 15//15 7//7
f 19//19 31//31 40//40
f 40//40 7//7 9//9
f 9//9 19//19 40//40
f 11//11 27//27 41//41
f 41//41 30//30 11//11
f 41//41 27//27 8//8
f 8//8 34//34 41//41
f 25//25 30//30 42//42
f 30//30 41//41 42//42
f 42//42 34//34 25//25
f 42//42 41//41 34//34
# 80 faces, 0 coords texture

# End of File
