####
#
# OBJ File Generated by Meshlab
#
####
# Object rfmiddle_mean.obj
#
# Vertices: 24
# Faces: 44
#
####
vn -2.793854 3.692238 -0.694400
v -0.025139 0.004907 -0.008395
vn -1.682571 -0.095630 -2.858101
v -0.024894 -0.001185 -0.015617
vn -3.278028 1.134749 1.760040
v -0.028131 0.000108 -0.001776
vn 2.573031 1.778207 -1.824789
v 0.001761 0.006189 -0.007850
vn 2.028347 2.694790 0.120072
v 0.000481 0.009805 -0.001972
vn 3.312526 -1.909913 -1.607299
v 0.001909 -0.005479 -0.006272
vn 3.212209 -0.455759 -3.206463
v 0.001684 -0.000433 -0.009194
vn 0.274844 -0.441880 5.521680
v -0.004616 -0.000422 0.006405
vn 0.442704 1.452002 4.558340
v -0.004513 0.004551 0.006248
vn 1.426937 -1.784195 3.687720
v -0.002725 -0.004977 0.005423
vn 1.321739 2.464967 2.136563
v -0.001907 0.008892 0.003588
vn 2.134602 -2.635628 1.674672
v -0.000264 -0.008025 0.001595
vn 2.786415 -2.724611 -0.186990
v 0.001224 -0.007822 -0.003070
vn -3.382979 -1.179263 1.986861
v -0.027886 -0.003217 -0.001633
vn -2.053982 2.952049 -3.046824
v -0.024292 0.002551 -0.013559
vn -0.451342 5.731659 -2.524841
v -0.006395 0.008459 -0.003799
vn -1.032898 5.801042 -0.704201
v -0.020070 0.006008 -0.006874
vn -2.291497 4.835575 2.929956
v -0.022332 0.003874 -0.002378
vn -2.375476 -4.173243 -0.169589
v -0.024247 -0.008463 -0.006867
vn -2.971671 -3.335102 1.524095
v -0.026036 -0.006575 -0.003040
vn -1.778871 -3.522900 -2.228824
v -0.023394 -0.007784 -0.011194
vn -1.322072 -4.101136 4.207204
v -0.023328 -0.006302 -0.001805
vn 1.019553 -2.956829 -5.215312
v -0.019876 -0.004447 -0.013427
vn 0.922217 -4.958565 -3.388732
v -0.020303 -0.007596 -0.010714
# 24 vertices, 0 vertices normals

f 1//1 2//2 3//3
f 4//4 5//5 6//6
f 7//7 4//4 6//6
f 2//2 4//4 7//7
f 8//8 9//9 3//3
f 10//10 9//9 8//8
f 11//11 9//9 10//10
f 11//11 12//12 5//5
f 10//10 12//12 11//11
f 3//3 9//9 11//11
f 6//6 5//5 13//13
f 5//5 12//12 13//13
f 3//3 2//2 14//14
f 14//14 8//8 3//3
f 10//10 8//8 14//14
f 15//15 4//4 2//2
f 2//2 1//1 15//15
f 5//5 4//4 15//15
f 15//15 16//16 5//5
f 17//17 11//11 5//5
f 1//1 11//11 17//17
f 5//5 16//16 17//17
f 17//17 15//15 1//1
f 16//16 15//15 17//17
f 18//18 1//1 3//3
f 3//3 11//11 18//18
f 18//18 11//11 1//1
f 19//19 13//13 12//12
f 20//20 19//19 12//12
f 14//14 19//19 20//20
f 21//21 14//14 2//2
f 21//21 19//19 14//14
f 13//13 19//19 21//21
f 22//22 12//12 10//10
f 22//22 20//20 12//12
f 10//10 14//14 22//22
f 14//14 20//20 22//22
f 23//23 21//21 2//2
f 2//2 7//7 23//23
f 23//23 7//7 6//6
f 24//24 23//23 6//6
f 21//21 23//23 24//24
f 6//6 13//13 24//24
f 13//13 21//21 24//24
# 44 faces, 0 coords texture

# End of File
