####
#
# OBJ File Generated by Meshlab
#
####
# Object thprox_mean.obj
#
# Vertices: 20
# Faces: 36
#
####
vn -2.505469 0.017210 0.119095
v -0.030841 -0.006845 0.013443
vn -0.261540 4.304302 -0.521932
v -0.005769 0.014632 0.019032
vn -2.100729 -0.180432 -3.018783
v -0.021243 -0.008777 0.000995
vn -0.172761 -0.633219 -2.635521
v -0.002831 -0.011021 -0.007241
vn -0.909453 -5.603687 -1.368358
v -0.011740 -0.014033 0.003216
vn -1.205707 1.950456 1.631560
v -0.014023 0.012329 0.025834
vn 1.737423 2.279459 0.310351
v 0.009108 0.011859 0.016779
vn 1.205110 -0.713988 -1.574025
v 0.010851 -0.011079 -0.004564
vn 2.730421 -0.716032 -0.128039
v 0.016953 -0.007217 0.006509
vn -3.209314 -2.126079 -1.797523
v -0.027338 -0.009774 0.007932
vn 3.797738 -0.372987 3.915191
v 0.010172 0.001535 0.018530
vn 1.851194 1.838786 5.460020
v -0.005260 0.007975 0.025178
vn 1.225296 -0.925588 5.214694
v -0.004355 -0.000827 0.026363
vn 1.196236 -5.921802 0.641721
v 0.000072 -0.013373 0.006988
vn 0.444852 -5.756927 1.541570
v -0.011104 -0.013505 0.015951
vn -1.626164 -5.951600 -0.051026
v -0.019563 -0.012761 0.010549
vn 1.369631 -3.714833 4.162014
v -0.006350 -0.008664 0.022819
vn -1.463138 -2.804079 2.878834
v -0.019554 -0.011814 0.021705
vn 2.624827 -4.162155 3.081661
v 0.007836 -0.008658 0.013903
vn -3.059293 -5.197837 1.250388
v -0.025388 -0.009932 0.015968
# 20 vertices, 0 vertices normals

f 1//1 2//2 3//3
f 2//2 4//4 3//3
f 4//4 5//5 3//3
f 6//6 2//2 1//1
f 7//7 4//4 2//2
f 2//2 6//6 7//7
f 8//8 5//5 4//4
f 8//8 7//7 9//9
f 4//4 7//7 8//8
f 1//1 3//3 10//10
f 10//10 3//3 5//5
f 9//9 7//7 11//11
f 12//12 6//6 13//13
f 12//12 7//7 6//6
f 13//13 11//11 12//12
f 12//12 11//11 7//7
f 14//14 8//8 9//9
f 5//5 8//8 14//14
f 14//14 15//15 5//5
f 5//5 15//15 16//16
f 16//16 10//10 5//5
f 15//15 17//17 18//18
f 18//18 16//16 15//15
f 18//18 17//17 13//13
f 18//18 6//6 1//1
f 13//13 6//6 18//18
f 19//19 17//17 15//15
f 15//15 14//14 19//19
f 19//19 14//14 9//9
f 9//9 11//11 19//19
f 19//19 11//11 13//13
f 13//13 17//17 19//19
f 10//10 16//16 20//20
f 16//16 18//18 20//20
f 1//1 10//10 20//20
f 20//20 18//18 1//1
# 36 faces, 0 coords texture

# End of File
